<?xml version="1.0" standalone="no"?>
<!DOCTYPE svg PUBLIC "-//W3C//DTD SVG 20010904//EN"
 "http://www.w3.org/TR/2001/REC-SVG-20010904/DTD/svg10.dtd">
<svg version="1.0" xmlns="http://www.w3.org/2000/svg"
 width="192.000000pt" height="192.000000pt" viewBox="0 0 192.000000 192.000000"
 preserveAspectRatio="xMidYMid meet">
<metadata>
Created by potrace 1.14, written by Peter Selinger 2001-2017
</metadata>
<g transform="translate(0.000000,192.000000) scale(0.100000,-0.100000)"
fill="#000000" stroke="none">
<path d="M812 1908 c-97 -13 -252 -69 -344 -124 -112 -66 -266 -220 -332 -332
-104 -175 -151 -394 -128 -596 14 -131 63 -279 128 -388 66 -112 220 -266 332
-332 175 -104 394 -151 596 -128 226 25 407 113 571 277 119 119 183 220 232
367 89 266 59 561 -83 800 -66 112 -220 266 -332 332 -187 111 -420 156 -640
124z m386 -472 c60 -22 124 -68 156 -114 49 -71 58 -121 61 -312 2 -181 8
-212 44 -244 25 -23 27 -62 6 -134 -19 -62 -62 -115 -119 -145 -55 -29 -184
-31 -236 -3 -126 66 -154 157 -130 410 14 142 8 176 -30 176 -17 0 -19 -10
-21 -122 -4 -282 -4 -292 15 -346 17 -50 17 -54 1 -72 -45 -50 -207 -84 -291
-61 -54 14 -103 48 -131 90 -22 33 -23 41 -23 268 0 216 -2 237 -20 274 -47
91 -46 230 1 308 18 30 20 31 96 31 86 0 144 -13 163 -35 10 -12 9 -20 -4 -40
-39 -59 -5 -78 42 -23 69 80 179 121 302 113 41 -2 94 -11 118 -19z"/>
</g>
</svg>
